<?xml version="1.0" encoding="UTF-8" standalone="no"?>
<!-- Created with Inkscape (http://www.inkscape.org/) -->
<svg
   xmlns:dc="http://purl.org/dc/elements/1.1/"
   xmlns:cc="http://creativecommons.org/ns#"
   xmlns:rdf="http://www.w3.org/1999/02/22-rdf-syntax-ns#"
   xmlns:svg="http://www.w3.org/2000/svg"
   xmlns="http://www.w3.org/2000/svg"
   xmlns:sodipodi="http://sodipodi.sourceforge.net/DTD/sodipodi-0.dtd"
   xmlns:inkscape="http://www.inkscape.org/namespaces/inkscape"
   version="1.0"
   width="110"
   height="110"
   viewBox="0 0 110 110"
   id="svg2638"
   sodipodi:version="0.32"
   inkscape:version="0.46"
   sodipodi:docname="LauncherIcon.svg"
   inkscape:output_extension="org.inkscape.output.svg.inkscape"
   inkscape:export-filename="E:\NSBCE8\Files\images\LauncherIcon16_96.png"
   inkscape:export-xdpi="96"
   inkscape:export-ydpi="96"><metadata
   id="metadata2661">
  <rdf:RDF>
    <cc:Work
       rdf:about="">
      <dc:format>image/svg+xml</dc:format>
      <dc:type
         rdf:resource="http://purl.org/dc/dcmitype/StillImage" />
    </cc:Work>
  </rdf:RDF>
</metadata>
<sodipodi:namedview
   inkscape:window-height="956"
   inkscape:window-width="1433"
   inkscape:pageshadow="2"
   inkscape:pageopacity="0.0"
   guidetolerance="10.0"
   gridtolerance="10.0"
   objecttolerance="10.0"
   borderopacity="1.0"
   bordercolor="#666666"
   pagecolor="#ffffff"
   id="base"
   showgrid="false"
   inkscape:zoom="0.93303299"
   inkscape:cx="38.243093"
   inkscape:cy="50.248123"
   inkscape:window-x="0"
   inkscape:window-y="0"
   inkscape:current-layer="svg2638" />


   id=&quot;svg2&quot;&gt;
  <defs
   id="defs4">
  <inkscape:perspective
     sodipodi:type="inkscape:persp3d"
     inkscape:vp_x="0 : 55 : 1"
     inkscape:vp_y="0 : 1000 : 0"
     inkscape:vp_z="110 : 55 : 1"
     inkscape:persp3d-origin="55 : 36.666667 : 1"
     id="perspective2663" />
</defs>
<g
   transform="translate(2.622e-4,-942.31433)"
   id="layer1">
  <path
     d="M 8.4,990.96218 L 8.4,990.96218 z"
     id="path2613"
     style="fill:none;stroke:#000000;stroke-width:1px;stroke-linecap:butt;stroke-linejoin:miter;stroke-opacity:1" />
  <path
     d="M 10.17039,1052.2955 L 34.937762,942.428 L 0.0622378,942.425 L 0.26040377,942.425 L 0.25921077,1052.2998 L 10.17039,1052.2998 L 10.17039,1052.2955 z"
     id="path2623"
     style="fill:none;stroke:#000000;stroke-width:0.10549579;stroke-linecap:butt;stroke-linejoin:miter;stroke-miterlimit:4;stroke-dasharray:none;stroke-opacity:1" />
  <path
     d="M 73.248184,1052.5622 L 109.89036,1052.4418"
     id="path3397"
     style="fill:none;stroke:#000000;stroke-width:0.1;stroke-linecap:butt;stroke-linejoin:miter;stroke-miterlimit:4;stroke-dasharray:none;stroke-opacity:1" />
  <path
     d="M 52.104713,981.16374 L 61.436671,942.37683 L 109.83282,942.43263 L 109.85732,1038.2548 L 109.84062,1052.0302 L 109.84462,1052.4867"
     id="path3399"
     style="fill:none;stroke:#000000;stroke-width:0.09199466;stroke-linecap:butt;stroke-linejoin:miter;stroke-miterlimit:4;stroke-dasharray:none;stroke-opacity:1" />
  <path
     d="M 49.2,993.36218 L 40.5514,1031.7566"
     id="path3403"
     style="fill:none;stroke:#000000;stroke-width:0.1;stroke-linecap:butt;stroke-linejoin:miter;stroke-miterlimit:4;stroke-dasharray:none;stroke-opacity:1" />
  <path
     d="M 37.442577,1047.4642 L 36.5,1051.8622"
     id="path3405"
     style="fill:none;stroke:#000000;stroke-width:0.1;stroke-linecap:butt;stroke-linejoin:miter;stroke-miterlimit:4;stroke-dasharray:none;stroke-opacity:1" />
  <path
     d="M 49.19158,993.35664 C 56.19158,987.95664 64.9514,987.14327 64.9514,987.14327 C 64.9514,987.14327 86.947948,983.97591 88,1009.9622 C 88.63317,1025.6019 72.856191,1046.4252 54.8,1040.5622 C 41.69003,1036.3053 40.55373,1031.6618 40.55373,1031.6618"
     id="path3433"
     style="fill:none;stroke:#000000;stroke-width:0.1;stroke-linecap:butt;stroke-linejoin:miter;stroke-miterlimit:4;stroke-dasharray:none;stroke-opacity:1" />
  <path
     d="M 52.029675,981.23788 C 69.829675,972.63788 83.427378,966.34219 96,976.76218 C 109.99169,988.35827 110.31326,1012.8086 99.6,1031.3622 C 91.902546,1044.6929 73.2,1052.5622 73.2,1052.5622"
     id="path3437"
     style="fill:none;stroke:#000000;stroke-width:0.1;stroke-linecap:butt;stroke-linejoin:miter;stroke-miterlimit:4;stroke-dasharray:none;stroke-opacity:1" />
  <path
     d="M 37.4,1047.4609 C 45,1052.0609 45,1051.8609 45,1051.8609 L 36.513866,1051.8609"
     id="path3439"
     style="fill:none;stroke:#000000;stroke-width:0.1;stroke-linecap:butt;stroke-linejoin:miter;stroke-miterlimit:4;stroke-dasharray:none;stroke-opacity:1" />
  <path
     d="M 0.40115508,997.23392 L 0.40115508,942.55913 L 17.521737,942.55913 C 33.623023,942.55913 34.631852,942.60153 34.466515,943.27051 C 34.369825,943.66177 28.822087,968.26543 22.138212,997.9453 L 9.985714,1051.9087 L 5.1934347,1051.9087 L 0.40115508,1051.9087 L 0.40115508,997.23392 L 0.40115508,997.23392 z"
     id="path3465"
     style="fill:#124662;fill-opacity:1;stroke-width:0.1;stroke-miterlimit:4;stroke-dasharray:none" />
  <path
     d="M 0.40115508,997.17834 L 0.40115508,942.44795 L 17.169448,942.74651 C 26.392009,942.91071 34.005846,943.11054 34.089086,943.19057 C 34.214318,943.31097 10.555889,1048.9647 9.9037498,1051.1973 C 9.7215124,1051.8212 9.1244969,1051.9087 5.0485583,1051.9087 L 0.40115508,1051.9087 L 0.40115508,997.17834 L 0.40115508,997.17834 z"
     id="path3471"
     style="fill:#187098;fill-opacity:1;stroke-width:0.1;stroke-miterlimit:4;stroke-dasharray:none" />
  <path
     d="M 36.654695,1051.6456 C 36.688025,1051.5536 36.888231,1050.6503 37.099603,1049.6383 C 37.310975,1048.6263 37.53703,1047.7983 37.601948,1047.7983 C 37.666868,1047.7983 38.662426,1048.3637 39.814303,1049.0548 C 40.966181,1049.7459 42.510413,1050.6492 43.24593,1051.0621 L 44.583233,1051.8129 L 40.588667,1051.8129 C 37.449909,1051.8129 36.607082,1051.7769 36.654695,1051.6456 z"
     id="path3503"
     style="fill:#c69c42;fill-opacity:1;stroke-width:0.10000000000000001;stroke-miterlimit:4;stroke-dasharray:none" />
  <path
     d="M 59.840512,1041.379 C 57.875372,1041.2576 56.515275,1040.9655 53.95243,1040.1143 C 50.333194,1038.9124 47.159428,1037.4356 44.679809,1035.7998 C 43.36442,1034.932 41.381561,1033.0233 40.958437,1032.2175 L 40.677348,1031.6822 L 45.000794,1012.546 C 47.378689,1002.021 49.326804,993.40086 49.329939,993.39005 C 49.333039,993.37925 49.922774,992.98041 50.640384,992.50377 C 52.981839,990.94855 55.248018,989.85474 58.234672,988.83826 C 64.45197,986.72225 69.695155,986.63337 75.029087,988.55358 C 77.491957,989.44021 79.582791,990.78542 81.523828,992.73218 C 85.498015,996.71809 87.596945,1002.4908 87.827872,1010.0703 C 87.891752,1012.1671 87.860342,1012.8339 87.622557,1014.4278 C 86.542798,1021.6653 82.757432,1028.9424 77.353833,1034.1688 C 73.038325,1038.3427 67.726281,1040.9829 62.961996,1041.3216 C 62.349195,1041.3656 61.727375,1041.4166 61.580173,1041.4354 C 61.432971,1041.4544 60.650123,1041.4254 59.840512,1041.3794 L 59.840512,1041.3794 L 59.840512,1041.379 z"
     id="path3579"
     style="fill:#c69c42;fill-opacity:1;stroke-width:0.10000000000000001;stroke-miterlimit:4;stroke-dasharray:none" />
  <path
     d=""
     id="path3617"
     style="fill:#f0a848;fill-opacity:1;stroke-width:0.1;stroke-miterlimit:4;stroke-dasharray:none" />
  <path
     d=""
     id="path3643"
     style="fill:#f0a848;fill-opacity:1;stroke-width:0.1;stroke-miterlimit:4;stroke-dasharray:none" />
  <path
     d=""
     id="path3645"
     style="fill:#f0a848;fill-opacity:1;stroke-width:0.1;stroke-miterlimit:4;stroke-dasharray:none" />
  <path
     d=""
     id="path3647"
     style="fill:#f0a848;fill-opacity:1;stroke-width:0.1;stroke-miterlimit:4;stroke-dasharray:none" />
  <path
     d="M 78.08363,1050.3855 C 86.390718,1046.0143 93.627553,1040.1342 98.009303,1034.1953 C 99.910531,1031.6185 103.18712,1024.9441 104.41147,1021.1541 C 108.28485,1009.1642 108.23439,997.36528 104.269,987.83998 C 100.49143,978.76585 92.829432,972.43486 84.336307,971.36992 C 77.629601,970.52897 70.55215,972.36536 57.732393,978.27286 C 55.039338,979.51385 52.774234,980.46751 52.698828,980.3921 C 52.623418,980.3167 54.600346,971.78275 57.091993,961.42777 L 61.62226,942.60054 L 66.631337,942.60554 C 69.38633,942.60854 80.209897,942.64674 90.683708,942.69054 L 109.727,942.77024 L 109.727,997.51971 L 109.727,1052.2692 L 92.128958,1052.2592 L 74.530915,1052.2492 L 78.08363,1050.3798 L 78.08363,1050.3798 L 78.08363,1050.3855 z"
     id="path3649"
     style="fill:#008c8c;fill-opacity:1;stroke-width:0.10000000000000001;stroke-miterlimit:4;stroke-dasharray:none;stroke:#008c8c;stroke-opacity:1" />
  <path
     style="fill:#b54218;fill-opacity:0"
     d="M 0.74228038,54.886516 C 0.74228038,72.990224 0.74228038,91.093931 0.74228038,109.19764 C 3.5608407,109.11079 6.4085156,109.26086 9.2082313,108.99498 C 9.6182881,108.73746 9.5361216,107.98196 9.7500191,107.56814 C 13.304899,92.531727 16.607096,77.435361 20.018671,62.365455 C 24.56416,42.020514 29.139046,21.696349 33.559731,1.3239705 C 28.915466,0.99371655 24.208795,1.0397528 19.54004,0.88767238 C 13.274649,0.75414808 7.0086464,0.6507045 0.74228038,0.57539352 C 0.74228038,18.679102 0.74228038,36.782808 0.74228038,54.886516 z"
     id="path3950"
     transform="translate(-2.622e-4,942.31433)" />
  <path
     style="fill:#b54218;fill-opacity:0"
     d="M 37.836132,106.20333 C 37.592045,107.12947 37.364278,108.05782 37.174406,108.99085 C 39.066306,109.08391 40.984339,109.04395 42.885925,109.01566 C 41.213152,108.03515 39.545929,107.0753 37.856811,106.12062 L 37.836132,106.20333 z"
     id="path3952"
     transform="translate(-2.622e-4,942.31433)" />
  <path
     style="fill:#b54218;fill-opacity:0"
     d="M 61.939484,0.75323226 C 59.021878,12.972257 56.014325,25.186312 53.258473,37.433505 C 61.068455,34.172087 68.710789,30.114983 77.157901,28.779736 C 82.883507,27.867362 88.984577,28.905764 93.838784,32.152109 C 100.55093,36.452836 104.89153,43.759087 106.58319,51.451071 C 108.67737,60.784493 107.61396,70.636355 104.57323,79.636 C 103.20285,83.402736 101.3704,86.995477 99.412868,90.481954 C 96.398523,95.176842 92.20362,99.03169 87.798222,102.42014 C 84.22366,105.11353 80.345459,107.38797 76.36923,109.45406 C 87.34772,109.57986 98.327533,109.54176 109.30662,109.57399 C 109.30663,73.355551 109.30663,37.137108 109.30662,0.91866364 C 93.520547,0.80265256 77.712321,0.71176192 61.939484,0.75323226 z"
     id="path3954"
     transform="translate(-2.622e-4,942.31433)" />
  <path
     style="fill:#b54218;fill-opacity:0"
     d="M 0.36592398,54.886516 C 0.36592398,73.117054 0.36592398,91.347593 0.36592398,109.57813 C 3.3388847,109.48991 6.3292025,109.6409 9.290947,109.36307 C 10.049418,109.04089 9.91436,107.93294 10.20956,107.27791 C 14.4359,89.201056 18.427132,71.069756 22.507918,52.959536 C 26.345565,35.70061 30.253438,18.456422 33.969173,1.1709465 C 33.896536,0.79055887 33.152034,0.980085 32.845039,0.87328647 C 22.023331,0.48893643 11.193348,0.34570991 0.36592398,0.19490134 C 0.36592398,18.42544 0.36592398,36.655978 0.36592398,54.886516 z"
     id="path3956"
     transform="translate(-2.622e-4,942.31433)" />
  <path
     style="fill:#b54218;fill-opacity:0"
     d="M 62.185977,0.35040684 C 61.362036,0.10881879 61.599635,1.2314825 61.342277,1.6986726 C 58.452319,13.702509 55.508895,25.696486 52.818425,37.746171 C 52.91549,38.227704 53.593897,37.567666 53.860643,37.580739 C 61.788505,34.264733 69.582877,30.12046 78.215629,29.00664 C 82.031311,28.645453 85.972508,28.877222 89.544185,30.376203 C 97.074119,33.314459 102.56182,40.125229 105.10984,47.656237 C 107.45081,54.289293 107.62626,61.498063 106.83763,68.42613 C 105.95833,75.26339 103.72093,81.891605 100.40881,87.930835 C 97.971008,92.887506 93.970163,96.838847 89.792941,100.35433 C 85.262014,104.11453 80.170433,107.12673 74.936594,109.79154 C 74.998201,109.98982 76.083087,109.82024 76.487507,109.88456 C 87.543709,109.95014 98.60019,109.91479 109.65651,109.92388 C 109.65651,73.451778 109.65651,36.979672 109.65651,0.50756665 C 93.83304,0.44979537 78.009568,0.35429646 62.185977,0.35040684 z"
     id="path3958"
     transform="translate(-2.622e-4,942.31433)" />
  <path
     style="fill:#b54218;fill-opacity:0"
     d="M 0.47180007,54.87659 C 0.47180007,73.100236 0.47180007,91.32388 0.47180007,109.54752 C 3.4922118,109.46115 6.5457244,109.59618 9.5457114,109.31592 C 10.218104,108.33697 10.184736,107.02387 10.55242,105.90835 C 18.043491,73.019586 25.408062,40.101895 32.698274,7.1680485 C 33.125427,5.0910998 33.677736,2.9634392 34.013013,0.91287354 C 23.576013,0.55321513 13.131369,0.34866518 2.6885806,0.20979017 C 2.0209485,0.36931499 0.70405117,-0.12042543 0.47180007,0.47448038 C 0.47180007,18.608517 0.47180007,36.742554 0.47180007,54.87659 z"
     id="path3960"
     transform="translate(-2.622e-4,942.31433)" />
  <path
     style="fill:#b54218;fill-opacity:0"
     d="M 0.47180007,54.87659 C 0.47180007,73.100236 0.47180007,91.32388 0.47180007,109.54752 C 3.4922118,109.46115 6.5457244,109.59618 9.5457114,109.31592 C 10.218104,108.33697 10.184736,107.02387 10.55242,105.90835 C 18.043491,73.019586 25.408062,40.101895 32.698274,7.1680485 C 33.125427,5.0910998 33.677736,2.9634392 34.013013,0.91287354 C 23.576013,0.55321513 13.131369,0.34866518 2.6885806,0.20979017 C 2.0209485,0.36931499 0.70405117,-0.12042543 0.47180007,0.47448038 C 0.47180007,18.608517 0.47180007,36.742554 0.47180007,54.87659 z"
     id="path3980"
     transform="translate(-2.622e-4,942.31433)" />
  <path
     style="fill:#b54218;fill-opacity:0"
     d="M 0.47180007,54.87659 C 0.47180007,73.100236 0.47180007,91.32388 0.47180007,109.54752 C 3.4922118,109.46115 6.5457244,109.59618 9.5457114,109.31592 C 10.218104,108.33697 10.184736,107.02387 10.55242,105.90835 C 18.043491,73.019586 25.408062,40.101895 32.698274,7.1680485 C 33.125427,5.0910998 33.677736,2.9634392 34.013013,0.91287354 C 23.576013,0.55321513 13.131369,0.34866518 2.6885806,0.20979017 C 2.0209485,0.36931499 0.70405117,-0.12042543 0.47180007,0.47448038 C 0.47180007,18.608517 0.47180007,36.742554 0.47180007,54.87659 z"
     id="path3982"
     transform="translate(-2.622e-4,942.31433)" />
  <path
     style="fill:#b54218;fill-opacity:0"
     d="M 0.47180007,54.87659 C 0.47180007,73.100236 0.47180007,91.32388 0.47180007,109.54752 C 3.4922118,109.46115 6.5457244,109.59618 9.5457114,109.31592 C 10.218104,108.33697 10.184736,107.02387 10.55242,105.90835 C 18.043491,73.019586 25.408062,40.101895 32.698274,7.1680485 C 33.125427,5.0910998 33.677736,2.9634392 34.013013,0.91287354 C 23.576013,0.55321513 13.131369,0.34866518 2.6885806,0.20979017 C 2.0209485,0.36931499 0.70405117,-0.12042543 0.47180007,0.47448038 C 0.47180007,18.608517 0.47180007,36.742554 0.47180007,54.87659 z"
     id="path3984"
     transform="translate(-2.622e-4,942.31433)" />
  <path
     style="fill:#b54218;fill-opacity:0"
     d="M 0.47180007,54.87659 C 0.47180007,73.100236 0.47180007,91.32388 0.47180007,109.54752 C 3.4922118,109.46115 6.5457244,109.59618 9.5457114,109.31592 C 10.218104,108.33697 10.184736,107.02387 10.55242,105.90835 C 18.043491,73.019586 25.408062,40.101895 32.698274,7.1680485 C 33.125427,5.0910998 33.677736,2.9634392 34.013013,0.91287354 C 23.576013,0.55321513 13.131369,0.34866518 2.6885806,0.20979017 C 2.0209485,0.36931499 0.70405117,-0.12042543 0.47180007,0.47448038 C 0.47180007,18.608517 0.47180007,36.742554 0.47180007,54.87659 z"
     id="path5460"
     transform="translate(-2.622e-4,942.31433)" />
  <path
     style="fill:#b54218;fill-opacity:0"
     d="M 0.34148249,54.972521 C 0.34259551,24.962205 0.38726198,0.34875253 0.44073999,0.27596272 C 0.50480032,0.18876847 4.0597129,0.1648365 10.860891,0.2058132 C 16.538496,0.24001911 20.498923,0.29957573 19.66184,0.3381583 C 18.637758,0.38535786 19.921214,0.44400395 23.58519,0.51742504 C 29.790305,0.64176724 33.922966,0.79525447 34.033177,0.90546618 C 34.117962,0.9902491 31.816738,11.598637 28.185273,27.863677 C 26.845279,33.865403 25.785256,38.890396 25.829669,39.030326 C 25.878198,39.183228 25.857745,39.252189 25.778405,39.203155 C 25.61226,39.100474 25.448083,39.927753 25.571024,40.248128 C 25.629456,40.400389 25.611801,40.454882 25.522027,40.399398 C 25.369652,40.305226 25.155737,41.157527 25.280913,41.360066 C 25.321296,41.425399 25.294345,41.498851 25.22103,41.523289 C 25.147716,41.547727 25.0729,41.805924 25.054774,42.09706 C 25.036648,42.388194 24.971687,42.663065 24.910418,42.707883 C 24.849152,42.752699 24.789595,43.03525 24.778073,43.335773 C 24.766554,43.636295 24.706005,43.882514 24.643521,43.882926 C 24.581036,43.88334 24.568535,44.037553 24.615739,44.225627 C 24.665647,44.424461 24.650027,44.535727 24.578425,44.491475 C 24.440522,44.406246 24.239748,45.277096 24.354497,45.462764 C 24.39488,45.528101 24.367929,45.601549 24.294614,45.625988 C 24.2213,45.650425 24.146484,45.908623 24.128358,46.199758 C 24.110232,46.490896 24.045272,46.765764 23.984003,46.810581 C 23.922736,46.855397 23.863179,47.137948 23.851657,47.438471 C 23.840138,47.738994 23.779589,47.985213 23.717105,47.985624 C 23.654621,47.986038 23.642119,48.140251 23.689323,48.328325 C 23.750945,48.573832 23.730914,48.642939 23.618309,48.573345 C 23.507217,48.504683 23.481016,48.578652 23.52848,48.826947 C 23.56533,49.01974 23.537735,49.177479 23.467149,49.177479 C 23.395227,49.177479 23.376538,49.327806 23.424633,49.519431 C 23.486255,49.764938 23.466223,49.834045 23.353619,49.764451 C 23.242527,49.695789 23.216325,49.769758 23.26379,50.018053 C 23.30064,50.210846 23.272555,50.368585 23.20137,50.368585 C 23.130186,50.368585 23.10309,50.487696 23.14116,50.633275 C 23.179233,50.778855 23.149455,50.897966 23.074994,50.897966 C 23.000535,50.897966 22.968073,51.046854 23.002859,51.228828 C 23.037646,51.410803 23.007865,51.559691 22.93668,51.559691 C 22.865496,51.559691 22.838399,51.678802 22.87647,51.824381 C 22.914543,51.969961 22.885252,52.089071 22.811385,52.089071 C 22.734216,52.089071 22.71241,52.22982 22.760124,52.419934 C 22.81219,52.627379 22.7871,52.750797 22.692864,52.750797 C 22.607722,52.750797 22.572568,52.865543 22.61178,53.015487 C 22.649853,53.161067 22.620562,53.280177 22.546695,53.280177 C 22.469526,53.280177 22.447719,53.420926 22.495434,53.61104 C 22.5475,53.818485 22.52241,53.941903 22.428173,53.941903 C 22.343032,53.941903 22.307878,54.056649 22.347089,54.206593 C 22.385162,54.352173 22.355382,54.471283 22.280917,54.471283 C 22.206454,54.471283 22.176659,54.590334 22.21471,54.735841 C 22.25276,54.881347 22.22474,55.036958 22.152443,55.08164 C 22.080149,55.12632 22.050384,55.275271 22.086305,55.412636 C 22.122226,55.550002 22.090692,55.662389 22.016227,55.662389 C 21.941764,55.662389 21.911969,55.78144 21.95002,55.926947 C 21.98807,56.072453 21.96005,56.228064 21.887753,56.272746 C 21.815459,56.317426 21.785693,56.466377 21.821615,56.603742 C 21.857536,56.741108 21.826002,56.853495 21.751536,56.853495 C 21.677074,56.853495 21.647294,56.972606 21.685364,57.118185 C 21.723437,57.263765 21.694146,57.382876 21.620279,57.382876 C 21.54311,57.382876 21.521304,57.523625 21.569018,57.713738 C 21.621084,57.921183 21.595994,58.044601 21.501758,58.044601 C 21.416616,58.044601 21.381463,58.159347 21.420674,58.309291 C 21.458747,58.454871 21.429456,58.573982 21.355589,58.573982 C 21.27842,58.573982 21.256613,58.714731 21.304328,58.904844 C 21.356394,59.112289 21.331304,59.235707 21.237067,59.235707 C 21.151926,59.235707 21.116772,59.350453 21.155983,59.500397 C 21.194057,59.645977 21.164276,59.765088 21.089811,59.765088 C 21.015348,59.765088 20.985553,59.884139 21.023604,60.029645 C 21.061655,60.175151 21.033634,60.330762 20.961337,60.375445 C 20.889043,60.420124 20.859278,60.569075 20.895199,60.70644 C 20.93112,60.843806 20.899586,60.956194 20.825121,60.956194 C 20.750658,60.956194 20.720863,61.075245 20.758914,61.220751 C 20.796964,61.366257 20.77171,61.52016 20.702793,61.562752 C 20.633878,61.60535 20.613702,61.754293 20.657964,61.893747 C 20.706326,62.046134 20.675916,62.147299 20.581739,62.147299 C 20.4902,62.147299 20.453821,62.25736 20.494258,62.41199 C 20.532331,62.557569 20.50304,62.67668 20.429173,62.67668 C 20.352004,62.67668 20.330198,62.817429 20.377912,63.007543 C 20.429978,63.214987 20.404888,63.338405 20.310652,63.338405 C 20.22551,63.338405 20.190357,63.453151 20.229568,63.603096 C 20.267641,63.748675 20.237861,63.867786 20.163395,63.867786 C 20.088933,63.867786 20.059138,63.986837 20.097188,64.132344 C 20.135239,64.277849 20.107219,64.433461 20.034921,64.478143 C 19.962628,64.522823 19.932862,64.671773 19.968783,64.809138 C 20.004704,64.946504 19.97317,65.058892 19.898705,65.058892 C 19.824242,65.058892 19.794447,65.177943 19.832498,65.32345 C 19.870549,65.468955 19.842528,65.624567 19.770231,65.669249 C 19.697937,65.713929 19.668172,65.862879 19.704093,66.000244 C 19.740014,66.13761 19.70848,66.249998 19.634015,66.249998 C 19.559552,66.249998 19.529757,66.369049 19.567808,66.514556 C 19.605858,66.660061 19.580604,66.813964 19.511687,66.856557 C 19.442772,66.899154 19.422596,67.048097 19.466858,67.187552 C 19.51522,67.339938 19.48481,67.441104 19.390633,67.441104 C 19.299119,67.441104 19.262713,67.551154 19.303118,67.705662 C 19.341168,67.851167 19.315914,68.00507 19.246997,68.047662 C 19.178082,68.09026 19.157906,68.239203 19.202167,68.378658 C 19.25053,68.531044 19.22012,68.63221 19.125943,68.63221 C 19.034404,68.63221 18.998025,68.74227 19.038462,68.8969 C 19.076535,69.042479 19.046755,69.16159 18.972289,69.16159 C 18.897827,69.16159 18.868032,69.280641 18.906082,69.426148 C 18.944133,69.571653 18.916113,69.727265 18.843815,69.771947 C 18.771522,69.816627 18.741756,69.965577 18.777677,70.102942 C 18.813598,70.240309 18.782064,70.352696 18.707599,70.352696 C 18.633136,70.352696 18.603342,70.471747 18.641392,70.617254 C 18.679443,70.762759 18.651423,70.918371 18.579125,70.963053 C 18.506832,71.007733 18.477066,71.156683 18.512987,71.294048 C 18.548908,71.431414 18.517374,71.543802 18.442909,71.543802 C 18.368446,71.543802 18.338651,71.662853 18.376702,71.80836 C 18.414752,71.953865 18.389498,72.107768 18.320581,72.150361 C 18.251666,72.192959 18.23149,72.341901 18.275752,72.481356 C 18.324115,72.633742 18.293704,72.734908 18.199528,72.734908 C 18.108014,72.734908 18.071607,72.844958 18.112012,72.999466 C 18.150062,73.144971 18.123171,73.299885 18.052253,73.343715 C 17.981333,73.387545 17.954546,73.504808 17.992724,73.6043 C 18.030907,73.703788 17.999996,73.823599 17.924045,73.870539 C 17.848093,73.917483 17.81534,74.068276 17.851261,74.205641 C 17.887182,74.343007 17.855649,74.455394 17.781183,74.455394 C 17.706721,74.455394 17.676926,74.574445 17.714976,74.719952 C 17.753027,74.865458 17.725007,75.021069 17.652709,75.065751 C 17.580416,75.110431 17.55065,75.259382 17.586571,75.396746 C 17.622492,75.534113 17.590958,75.6465 17.516493,75.6465 C 17.44203,75.6465 17.412236,75.765551 17.450286,75.911058 C 17.488337,76.056564 17.463083,76.210466 17.394165,76.253059 C 17.32525,76.295657 17.305074,76.444599 17.349336,76.584054 C 17.397699,76.73644 17.367289,76.837606 17.273112,76.837606 C 17.181598,76.837606 17.145191,76.947656 17.185596,77.102164 C 17.223646,77.24767 17.198392,77.401572 17.129475,77.444165 C 17.06056,77.486763 17.040384,77.635705 17.084646,77.77516 C 17.133009,77.927546 17.102598,78.028712 17.008422,78.028712 C 16.916908,78.028712 16.880501,78.138762 16.920906,78.29327 C 16.958956,78.438775 16.932065,78.593689 16.861147,78.637519 C 16.790227,78.68135 16.76344,78.798613 16.801618,78.898104 C 16.839801,78.997592 16.80889,79.117403 16.732939,79.164343 C 16.656987,79.211287 16.624218,79.36202 16.660121,79.499312 C 16.696028,79.636602 16.667375,79.784795 16.596456,79.828625 C 16.525537,79.872455 16.49875,79.989719 16.536928,80.08921 C 16.57511,80.188698 16.546966,80.306799 16.474395,80.351651 C 16.401823,80.396504 16.378659,80.547298 16.42292,80.686752 C 16.471283,80.839139 16.440873,80.940304 16.346696,80.940304 C 16.255182,80.940304 16.218775,81.050355 16.25918,81.204862 C 16.297231,81.350368 16.271977,81.504271 16.203059,81.546863 C 16.134145,81.589461 16.113968,81.738404 16.15823,81.877858 C 16.206593,82.030244 16.176183,82.13141 16.082006,82.13141 C 15.990492,82.13141 15.954085,82.241461 15.99449,82.395968 C 16.032541,82.541474 16.007286,82.695377 15.938369,82.737969 C 15.869454,82.780567 15.849278,82.92951 15.89354,83.068964 C 15.941903,83.22135 15.911492,83.322516 15.817316,83.322516 C 15.725802,83.322516 15.689395,83.432567 15.7298,83.587074 C 15.76785,83.73258 15.740959,83.887494 15.670041,83.931324 C 15.599121,83.975154 15.572334,84.092417 15.610512,84.191909 C 15.648695,84.291396 15.617784,84.411207 15.541833,84.458147 C 15.465881,84.505091 15.433112,84.655824 15.469015,84.793117 C 15.504922,84.930406 15.476269,85.0786 15.40535,85.12243 C 15.334431,85.16626 15.307644,85.283523 15.345822,85.383014 C 15.384005,85.482502 15.353094,85.602313 15.277142,85.649253 C 15.201191,85.696197 15.168438,85.84699 15.204359,85.984355 C 15.24028,86.121721 15.208747,86.234109 15.134281,86.234109 C 15.059819,86.234109 15.030024,86.35316 15.068074,86.498667 C 15.106125,86.644172 15.080871,86.798075 15.011953,86.840667 C 14.943039,86.883265 14.922863,87.032208 14.967124,87.171663 C 15.015487,87.324049 14.985077,87.425215 14.8909,87.425215 C 14.799386,87.425215 14.762979,87.535265 14.803384,87.689772 C 14.841435,87.835278 14.814543,87.990192 14.743625,88.034022 C 14.672705,88.077852 14.645919,88.195115 14.684096,88.294607 C 14.722279,88.394095 14.691368,88.513905 14.615417,88.560845 C 14.539465,88.60779 14.506697,88.758523 14.542599,88.895815 C 14.578506,89.033104 14.549853,89.181298 14.478935,89.225128 C 14.408015,89.268958 14.381228,89.386221 14.419406,89.485713 C 14.457589,89.585201 14.426678,89.705011 14.350727,89.751951 C 14.274775,89.798896 14.242007,89.949629 14.277909,90.086921 C 14.313816,90.22421 14.285163,90.372404 14.214245,90.416234 C 14.143325,90.460064 14.116538,90.577327 14.154716,90.676819 C 14.192899,90.776306 14.164754,90.894407 14.092183,90.939259 C 14.019611,90.984112 13.996447,91.134906 14.040708,91.274361 C 14.089071,91.426747 14.058661,91.527913 13.964484,91.527913 C 13.87297,91.527913 13.836563,91.637963 13.876968,91.792471 C 13.915019,91.937976 13.889765,92.091879 13.820847,92.134472 C 13.751933,92.17707 13.731757,92.326012 13.776018,92.465467 C 13.824381,92.617853 13.793971,92.719019 13.699794,92.719019 C 13.60828,92.719019 13.571873,92.829069 13.612278,92.983577 C 13.650329,93.129082 13.623437,93.283996 13.552519,93.327826 C 13.481599,93.371656 13.454813,93.488919 13.49299,93.588411 C 13.531173,93.687899 13.500263,93.80771 13.424311,93.85465 C 13.348359,93.901594 13.315607,94.052386 13.351528,94.189751 C 13.387449,94.327118 13.355915,94.439505 13.28145,94.439505 C 13.206987,94.439505 13.177192,94.558556 13.215243,94.704063 C 13.253293,94.849569 13.228039,95.003471 13.159122,95.046064 C 13.090207,95.088662 13.070031,95.237604 13.114293,95.377059 C 13.162655,95.529445 13.132245,95.630611 13.038068,95.630611 C 12.946529,95.630611 12.91015,95.740672 12.950587,95.895301 C 12.98866,96.040881 12.959369,96.159992 12.885502,96.159992 C 12.808333,96.159992 12.786527,96.300741 12.834241,96.490854 C 12.886307,96.698299 12.861217,96.821717 12.766981,96.821717 C 12.681839,96.821717 12.646686,96.936463 12.685897,97.086407 C 12.72397,97.231987 12.694679,97.351098 12.620812,97.351098 C 12.543643,97.351098 12.521836,97.491847 12.569551,97.68196 C 12.621617,97.889405 12.596527,98.012823 12.50229,98.012823 C 12.417149,98.012823 12.381995,98.127569 12.421207,98.277513 C 12.45928,98.423093 12.429499,98.542203 12.355034,98.542203 C 12.280571,98.542203 12.250791,98.661314 12.288861,98.806894 C 12.326934,98.952473 12.297157,99.071584 12.222696,99.071584 C 12.148237,99.071584 12.115774,99.220472 12.150561,99.402447 C 12.185348,99.584421 12.155566,99.733309 12.084382,99.733309 C 12.013197,99.733309 11.986101,99.85242 12.024171,99.998 C 12.062244,100.14358 12.032954,100.26269 11.959087,100.26269 C 11.880755,100.26269 11.860552,100.4052 11.910609,100.60464 C 11.972231,100.85015 11.952199,100.91926 11.839595,100.84966 C 11.728503,100.781 11.702301,100.85497 11.749766,101.10326 C 11.786616,101.29606 11.75902,101.4538 11.688434,101.4538 C 11.616513,101.4538 11.597824,101.60412 11.645918,101.79575 C 11.707541,102.04125 11.687509,102.11036 11.574905,102.04077 C 11.463813,101.97211 11.437611,102.04607 11.485075,102.29437 C 11.521926,102.48716 11.493841,102.6449 11.422656,102.6449 C 11.351472,102.6449 11.323629,102.76116 11.360786,102.90325 C 11.397942,103.04534 11.369964,103.18105 11.29861,103.20484 C 11.227254,103.22862 11.159135,103.49914 11.147229,103.80599 C 11.135323,104.11284 11.090392,104.36423 11.047382,104.36464 C 10.906498,104.36599 10.651148,105.77028 10.746571,106.01895 C 10.806481,106.17509 10.789652,106.23071 10.699376,106.17491 C 10.524994,106.06714 10.355978,106.88196 10.483682,107.21475 C 10.54112,107.36442 10.524024,107.42124 10.437626,107.36784 C 10.354107,107.31622 10.233555,107.59718 10.130155,108.08442 C 9.8179492,109.55559 10.189057,109.4549 4.9171795,109.49871 L 0.33945496,109.53675 L 0.34148249,54.972521 z"
     id="path5462"
     transform="translate(-2.622e-4,942.31433)" />
</g>
<path
   style="fill:none;stroke:#000000;stroke-width:0.1;stroke-linecap:butt;stroke-linejoin:miter;stroke-opacity:1;stroke-miterlimit:4;stroke-dasharray:none"
   d="m 9.9258829,110 63.7903411,0"
   id="path2673" />
<path
   style="fill:none;stroke:#000000;stroke-width:0.1;stroke-linecap:butt;stroke-linejoin:miter;stroke-opacity:1;stroke-miterlimit:4;stroke-dasharray:none"
   d="m 61.408129,0.1535627 c 0,0 0,0 -26.601366,-0.13234511 l 0,0"
   id="path3445" />
<path
   style="fill:#ffffff;fill-opacity:1;stroke-width:0.1;stroke-miterlimit:4;stroke-dasharray:none"
   d="m 10.344745,109.84992 c 0,-0.0996 24.45948,-108.6303162 24.619408,-109.24030945 l 0.121444,-0.46320787 13.069599,0.0407935 c 7.18828,0.0224364 13.079487,0.0522141 13.091571,0.0661726 0.01209,0.0139585 -2.073154,8.72045242 -4.633865,19.34776422 -2.560711,10.627312 -4.612551,19.341012 -4.559645,19.363776 0.05291,0.02276 1.722754,-0.731102 3.710772,-1.675258 10.571852,-5.020822 16.135154,-7.022226 21.812029,-7.846907 2.489802,-0.361693 6.336271,-0.297524 8.358728,0.139447 4.332685,0.936116 8.365858,3.215668 11.829823,6.686225 4.484121,4.492652 7.435721,10.623752 8.647391,17.962472 0.82779,5.013704 0.70832,11.332202 -0.31982,16.914446 -1.46176,7.936495 -5.17736,16.578825 -9.390199,21.84116 -4.674404,5.838887 -11.837539,11.295716 -20.70684,15.774326 l -2.308816,1.16585 -31.67079,0 c -17.418935,0 -31.67079,-0.0345 -31.67079,-0.0768 z m 34.674418,-0.30828 c 0,-0.0662 -0.521109,-0.40189 -1.15802,-0.74602 -0.636911,-0.34412 -2.342595,-1.33375 -3.790409,-2.19918 -1.447813,-0.86543 -2.658889,-1.54701 -2.691279,-1.51462 -0.06843,0.0684 -0.962368,4.16834 -0.962581,4.41473 -1.12e-4,0.12895 0.948254,0.16543 4.301073,0.16543 2.493117,0 4.301216,-0.0506 4.301216,-0.12034 z m 19.34232,-10.461787 c 5.156159,-0.889797 9.718674,-3.460626 14.013158,-7.895955 3.668071,-3.788376 6.441101,-8.383087 8.137502,-13.483264 1.575114,-4.73553 1.919055,-8.266354 1.308526,-13.433028 -1.395693,-11.811225 -8.09272,-18.721369 -18.983353,-19.587454 -5.527785,-0.4396 -12.908616,1.682273 -18.293807,5.259184 -0.710284,0.471779 -1.333468,0.925765 -1.384852,1.008856 -0.05138,0.08309 -2.039542,8.786594 -4.418129,19.341116 l -4.324703,19.190041 0.340369,0.595553 c 0.517067,0.904724 2.458202,2.758053 3.865933,3.691058 3.437343,2.278178 10.279237,4.978412 13.750418,5.426764 1.662723,0.214764 4.388006,0.163402 5.988938,-0.112871 z"
   id="path3447"
   inkscape:export-xdpi="90"
   inkscape:export-ydpi="90" />
<path
   style="fill:#000000;fill-opacity:0"
   d="M 0.47180007,54.831396 L 0.47180007,0.15655906 L 5.0707925,0.24346744 C 7.6002383,0.29126917 12.76666,0.38769052 16.55173,0.45774078 C 22.973182,0.57658139 33.998397,0.85392909 34.039558,0.89765988 C 34.179537,1.0463761 10.05776,108.68921 9.7840252,109.13739 C 9.6116827,109.41955 8.4126374,109.50482 4.6075846,109.50549 L 0.47180007,109.50623 L 0.47180007,54.831396 z"
   id="path3346" />
<path
   style="fill:#b54218;fill-opacity:0"
   d="M 0.36592398,54.916269 C 0.36592398,7.2833906 0.39047532,0.30379299 0.55825186,0.23941106 C 0.83078749,0.13482799 24.245768,0.56193609 31.367765,0.80140132 C 33.436057,0.87094205 33.981581,0.92673213 33.981581,1.0687067 C 33.981581,1.6956228 18.48548,71.172101 12.260354,98.455418 C 10.439581,106.43547 9.813689,108.97335 9.6166033,109.17537 C 9.3699994,109.42816 9.1562528,109.44185 4.8621557,109.47969 L 0.36592398,109.51931 L 0.36592398,54.916269 z"
   id="path3857" />
<path
   style="fill:#b54218;fill-opacity:0"
   d="M 0.36592398,54.916269 C 0.36592398,7.2833906 0.39047532,0.30379299 0.55825186,0.23941106 C 0.83078749,0.13482799 24.245768,0.56193609 31.367765,0.80140132 C 33.436057,0.87094205 33.981581,0.92673213 33.981581,1.0687067 C 33.981581,1.6956228 18.48548,71.172101 12.260354,98.455418 C 10.439581,106.43547 9.813689,108.97335 9.6166033,109.17537 C 9.3699994,109.42816 9.1562528,109.44185 4.8621557,109.47969 L 0.36592398,109.51931 L 0.36592398,54.916269 z"
   id="path3859" />
<path
   style="fill:#b54218;fill-rule:evenodd;stroke:#b54218;stroke-width:0.29999999999999999;stroke-linecap:butt;stroke-linejoin:miter;stroke-opacity:1;stroke-miterlimit:4;stroke-dasharray:none;fill-opacity:1;opacity:1"
   d="M 0,0.21651767 L 34.36842,0.21651767 L 9.7730103,110 L 0.32576701,110 L 0,0.21651767 z"
   id="path5490" />
</svg>
